<svg xmlns="http://www.w3.org/2000/svg" xmlns:xlink="http://www.w3.org/1999/xlink" viewBox="0,0,256,256" width="144px" height="144px" fill-rule="nonzero"><g fill="#ffffff" fill-rule="nonzero" stroke="none" stroke-width="1" stroke-linecap="butt" stroke-linejoin="miter" stroke-miterlimit="10" stroke-dasharray="" stroke-dashoffset="0" font-family="none" font-weight="none" font-size="none" text-anchor="none" style="mix-blend-mode: normal"><g transform="scale(5.33333,5.33333)"><path d="M31.45313,0c-0.12427,0.004 -0.24884,0.02284 -0.37109,0.05859c-0.232,0.068 -2.32937,0.72188 -4.48437,2.92188c-2.289,2.337 -2.57884,5.25981 -2.58984,5.38281c-0.044,0.481 0.14381,0.95353 0.50781,1.26953c0.276,0.24 0.62637,0.36719 0.98438,0.36719c0.114,0 0.22975,-0.01206 0.34375,-0.03906c0.119,-0.028 2.9372,-0.71556 4.9082,-3.35156c1.844,-2.463 2.19742,-4.65744 2.23242,-4.89844c0.072,-0.505 -0.11795,-1.01075 -0.50195,-1.34375c-0.288,-0.25125 -0.6565,-0.37919 -1.0293,-0.36719zM17,11c-5.9898,0 -11,5.32446 -11,12.5c0,5.58333 1.84331,10.57667 4.09961,14.22656c1.12815,1.82495 2.35716,3.31562 3.57422,4.40039c1.21706,1.08477 2.36784,1.87305 3.82617,1.87305c1.83333,0 3.15918,-0.65223 4.20117,-1.14258c1.04199,-0.49035 1.83454,-0.85742 3.29883,-0.85742c1.46429,0 2.25683,0.36707 3.29883,0.85742c1.04199,0.49035 2.36784,1.14258 4.20117,1.14258c1.96848,0 3.42559,-1.3332 5.01758,-3.15234c1.59198,-1.81914 3.16148,-4.31858 4.37109,-7.28125c0.15546,-0.38197 0.14682,-0.81109 -0.02388,-1.18649c-0.1707,-0.3754 -0.48842,-0.66398 -0.87846,-0.79789c-2.83459,-0.97181 -4.98633,-3.98531 -4.98633,-7.83203c0,-3.34368 1.53249,-6.16091 3.75391,-7.45312c0.40669,-0.23644 0.67891,-0.64997 0.73532,-1.117c0.05641,-0.46703 -0.10952,-0.93348 -0.44821,-1.25996c-1.91309,-1.8459 -4.34214,-2.91992 -7.04102,-2.91992c-2.03571,0 -3.40918,0.65223 -4.45117,1.14258c-1.04199,0.49035 -1.79883,0.85742 -3.54883,0.85742c-1.75,0 -2.50683,-0.36707 -3.54883,-0.85742c-1.04199,-0.49035 -2.41546,-1.14258 -4.45117,-1.14258zM17,14c1.46429,0 2.09082,0.34777 3.17383,0.85742c1.08301,0.50965 2.57617,1.14258 4.82617,1.14258c2.25,0 3.74317,-0.63293 4.82617,-1.14258c1.08301,-0.50965 1.70954,-0.85742 3.17383,-0.85742c1.33062,0 2.45376,0.44403 3.51563,1.0957c-2.21512,2.11156 -3.51562,5.22875 -3.51562,8.6543c0,4.32909 2.21791,7.99456 5.52539,9.84961c-0.99627,2.12013 -2.14486,3.9908 -3.26562,5.27148c-1.33402,1.52436 -2.72925,2.12891 -2.75977,2.12891c-1.16667,0 -1.84082,-0.34777 -2.92383,-0.85742c-1.08301,-0.50965 -2.54046,-1.14258 -4.57617,-1.14258c-2.03571,0 -3.49317,0.63293 -4.57617,1.14258c-1.08301,0.50965 -1.75716,0.85742 -2.92383,0.85742c-0.04167,0 -0.89089,-0.27422 -1.83008,-1.11133c-0.93919,-0.8371 -2.02268,-2.12768 -3.01953,-3.74023c-1.9937,-3.22511 -3.65039,-7.73177 -3.65039,-12.64844c0,-5.82446 3.7718,-9.5 8,-9.5z"></path></g></g></svg>