<svg xmlns="http://www.w3.org/2000/svg" xmlns:xlink="http://www.w3.org/1999/xlink" viewBox="0,0,256,256" width="144px" height="144px" fill-rule="nonzero"><g fill="#ffffff" fill-rule="nonzero" stroke="none" stroke-width="1" stroke-linecap="butt" stroke-linejoin="miter" stroke-miterlimit="10" stroke-dasharray="" stroke-dashoffset="0" font-family="none" font-weight="none" font-size="none" text-anchor="none" style="mix-blend-mode: normal"><g transform="scale(5.33333,5.33333)"><path d="M8.5,6c-1.36359,0 -2.5,1.13641 -2.5,2.5v12c0,1.36359 1.13641,2.5 2.5,2.5h12c1.36359,0 2.5,-1.13641 2.5,-2.5v-12c0,-1.36359 -1.13641,-2.5 -2.5,-2.5zM27.5,6c-1.36359,0 -2.5,1.13641 -2.5,2.5v12c0,1.36359 1.13641,2.5 2.5,2.5h12c1.36359,0 2.5,-1.13641 2.5,-2.5v-12c0,-1.36359 -1.13641,-2.5 -2.5,-2.5zM9,9h11v11h-11zM28,9h11v11h-11zM8.5,25c-1.36359,0 -2.5,1.13641 -2.5,2.5v12c0,1.36359 1.13641,2.5 2.5,2.5h12c1.36359,0 2.5,-1.13641 2.5,-2.5v-12c0,-1.36359 -1.13641,-2.5 -2.5,-2.5zM27.5,25c-1.36359,0 -2.5,1.13641 -2.5,2.5v12c0,1.36359 1.13641,2.5 2.5,2.5h12c1.36359,0 2.5,-1.13641 2.5,-2.5v-12c0,-1.36359 -1.13641,-2.5 -2.5,-2.5zM9,28h11v11h-11zM28,28h11v11h-11z"></path></g></g></svg>